<svg width="1600" height="1000" viewBox="0 0 1600 1000" fill="none" xmlns="http://www.w3.org/2000/svg">
  <rect width="1600" height="1000" fill="#08111F"/>
  <rect width="1600" height="1000" fill="url(#paint0_radial)"/>
  <rect x="84" y="84" width="1432" height="832" rx="44" fill="url(#paint1_linear)" stroke="#22304A" stroke-width="2"/>
  <rect x="140" y="156" width="1320" height="84" rx="24" fill="#111A2B"/>
  <rect x="140" y="292" width="760" height="360" rx="28" fill="#0F172A"/>
  <rect x="944" y="292" width="516" height="166" rx="28" fill="#0F172A"/>
  <rect x="944" y="486" width="516" height="166" rx="28" fill="#0F172A"/>
  <rect x="140" y="702" width="1320" height="98" rx="28" fill="#0F172A"/>
  <rect x="182" y="182" width="182" height="32" rx="16" fill="#123B40"/>
  <rect x="182" y="330" width="462" height="32" rx="16" fill="#E5EEFB"/>
  <rect x="182" y="386" width="372" height="22" rx="11" fill="#9FB0C7" fill-opacity="0.85"/>
  <rect x="182" y="430" width="402" height="22" rx="11" fill="#9FB0C7" fill-opacity="0.72"/>
  <rect x="182" y="742" width="182" height="18" rx="9" fill="#99F6E4" fill-opacity="0.85"/>
  <rect x="182" y="777" width="328" height="16" rx="8" fill="#9FB0C7" fill-opacity="0.72"/>
  <circle cx="1352" cy="751" r="42" fill="#E5EEFB"/>
  <path d="M1340 732L1369 751L1340 770V732Z" fill="#08111F"/>
  <defs>
    <radialGradient id="paint0_radial" cx="0" cy="0" r="1" gradientUnits="userSpaceOnUse" gradientTransform="translate(800 0) rotate(90) scale(1000 1120.44)">
      <stop stop-color="#0F766E" stop-opacity="0.18"/>
      <stop offset="0.42" stop-color="#08111F" stop-opacity="0"/>
      <stop offset="1" stop-color="#08111F" stop-opacity="0"/>
    </radialGradient>
    <linearGradient id="paint1_linear" x1="800" y1="84" x2="800" y2="916" gradientUnits="userSpaceOnUse">
      <stop stop-color="#111A2B"/>
      <stop offset="1" stop-color="#0B1220"/>
    </linearGradient>
  </defs>
</svg>
